<svg xmlns="http://www.w3.org/2000/svg" width="79.644" height="58.489" viewBox="0 0 79.644 58.489"><defs><style>.a{fill:#fff;}</style></defs><g transform="translate(0 0)"><g transform="translate(0 0)"><path class="a" d="M70.311,68H9.333A9.344,9.344,0,0,0,0,77.333v39.822a9.344,9.344,0,0,0,9.333,9.333H70.311a9.344,9.344,0,0,0,9.333-9.333V77.333A9.344,9.344,0,0,0,70.311,68Zm3.111,49.155a3.115,3.115,0,0,1-3.111,3.111H9.333a3.115,3.115,0,0,1-3.111-3.111V77.333a3.115,3.115,0,0,1,3.111-3.111H70.311a3.115,3.115,0,0,1,3.111,3.111Z" transform="translate(0 -68)"/></g></g><g transform="translate(3.009 3.843)"><path class="a" d="M89.432,92.937l-33.1,24.371-33.1-24.371-3.717,4.946,36.813,27.108L93.149,97.883Z" transform="translate(-19.522 -92.937)"/></g></svg>