<svg xmlns="http://www.w3.org/2000/svg" width="79.644" height="77.696" xmlns:v="https://vecta.io/nano"><path d="M74.3 19.835A39.65 39.65 0 0 0 59.81 5.341 38.95 38.95 0 0 0 39.822 0c-7.023-.054-13.929 1.791-19.989 5.341-6.018 3.477-11.015 8.476-14.492 14.494C1.792 25.894-.054 32.799 0 39.821a38.7 38.7 0 0 0 7.6 23.414A39 39 0 0 0 27.221 77.62a2.32 2.32 0 0 0 2.074-.362 2.03 2.03 0 0 0 .674-1.555q0-.156-.026-2.8-.026-2.644-.026-4.614l-1.193.206c-.951.152-1.915.213-2.878.182-1.208-.022-2.412-.143-3.6-.363a8.05 8.05 0 0 1-3.474-1.554 6.58 6.58 0 0 1-2.281-3.188l-.518-1.193c-.438-.944-.987-1.832-1.637-2.644-.581-.829-1.355-1.506-2.255-1.97l-.363-.26c-.249-.18-.475-.389-.674-.623-.191-.217-.348-.462-.466-.726q-.156-.364.259-.6c.476-.191.989-.27 1.5-.232l1.037.155a7.57 7.57 0 0 1 2.567 1.244 8.37 8.37 0 0 1 2.515 2.7 9.14 9.14 0 0 0 2.878 3.241 6.1 6.1 0 0 0 3.4 1.114c.992.014 1.982-.073 2.956-.258.806-.165 1.589-.427 2.333-.778a8.4 8.4 0 0 1 2.54-5.341 35.5 35.5 0 0 1-5.315-.933 21.16 21.16 0 0 1-4.873-2.023 13.96 13.96 0 0 1-4.175-3.477 16.7 16.7 0 0 1-2.722-5.444 25.89 25.89 0 0 1-1.063-7.778c-.085-3.96 1.387-7.796 4.1-10.682q-1.919-4.718.363-10.577 1.5-.467 4.459.7c1.492.555 2.94 1.224 4.33 2q1.375.828 2.2 1.4c6.516-1.797 13.396-1.797 19.912 0l1.97-1.244a27.9 27.9 0 0 1 4.769-2.282 6.8 6.8 0 0 1 4.2-.57q2.332 5.859.414 10.577c2.713 2.886 4.185 6.722 4.1 10.682a26.18 26.18 0 0 1-1.063 7.8c-.559 1.974-1.492 3.822-2.747 5.444a14.5 14.5 0 0 1-4.2 3.448 21.2 21.2 0 0 1-4.874 2.022 35.47 35.47 0 0 1-5.314.935q2.7 2.332 2.7 7.362v10.94c-.015.587.221 1.153.649 1.555a2.25 2.25 0 0 0 2.048.362A39 39 0 0 0 72.048 63.23a38.71 38.71 0 0 0 7.6-23.411c.05-7.021-1.798-13.926-5.348-19.984z" fill="#fff"/></svg>