<svg xmlns="http://www.w3.org/2000/svg" width="79.644" height="77.696" viewBox="0 0 79.644 77.696"><defs><style>.a{fill:#fff;}</style></defs><path class="a" d="M74.3,25.2A39.649,39.649,0,0,0,59.81,10.706,38.95,38.95,0,0,0,39.822,5.365a38.954,38.954,0,0,0-19.989,5.341A39.644,39.644,0,0,0,5.341,25.2,38.953,38.953,0,0,0,0,45.186,38.7,38.7,0,0,0,7.6,68.6,39,39,0,0,0,27.221,82.985a2.321,2.321,0,0,0,2.074-.362,2.028,2.028,0,0,0,.674-1.555q0-.156-.026-2.8t-.026-4.614l-1.193.206a15.213,15.213,0,0,1-2.878.182,21.925,21.925,0,0,1-3.6-.363,8.052,8.052,0,0,1-3.474-1.554,6.579,6.579,0,0,1-2.281-3.188l-.518-1.193A12.956,12.956,0,0,0,14.336,65.1a6.257,6.257,0,0,0-2.255-1.97l-.363-.26a3.806,3.806,0,0,1-.674-.623,2.845,2.845,0,0,1-.466-.726q-.156-.364.259-.6a3.363,3.363,0,0,1,1.5-.232l1.037.155a7.569,7.569,0,0,1,2.567,1.244,8.369,8.369,0,0,1,2.515,2.7,9.14,9.14,0,0,0,2.878,3.241,6.1,6.1,0,0,0,3.4,1.114,14.746,14.746,0,0,0,2.956-.258,10.313,10.313,0,0,0,2.333-.778,8.4,8.4,0,0,1,2.54-5.341,35.5,35.5,0,0,1-5.315-.933,21.161,21.161,0,0,1-4.873-2.023A13.959,13.959,0,0,1,18.2,56.333a16.7,16.7,0,0,1-2.722-5.444,25.89,25.89,0,0,1-1.063-7.778,15.124,15.124,0,0,1,4.1-10.682q-1.919-4.718.363-10.577,1.5-.467,4.459.7a31.176,31.176,0,0,1,4.33,2q1.375.828,2.2,1.4a37.447,37.447,0,0,1,19.912,0l1.97-1.244a27.9,27.9,0,0,1,4.769-2.282,6.8,6.8,0,0,1,4.2-.57q2.332,5.859.414,10.577a15.126,15.126,0,0,1,4.1,10.682,26.179,26.179,0,0,1-1.063,7.8,16.046,16.046,0,0,1-2.747,5.444,14.5,14.5,0,0,1-4.2,3.448,21.2,21.2,0,0,1-4.874,2.022,35.468,35.468,0,0,1-5.314.935q2.7,2.332,2.7,7.362v10.94a2.065,2.065,0,0,0,.649,1.555,2.252,2.252,0,0,0,2.048.362A39,39,0,0,0,72.048,68.595a38.708,38.708,0,0,0,7.6-23.411A38.985,38.985,0,0,0,74.3,25.2Z" transform="translate(0 -5.365)"/></svg>