<svg xmlns="http://www.w3.org/2000/svg" width="492" height="137" fill="none" xmlns:v="https://vecta.io/nano"><path d="M487.847 61.904l-20.296 24.863c4.059 7.611 8.626 14.714 13.192 21.311 3.045 4.059 4.059 9.641 2.537 14.715v.507c-2.029 7.104-8.118 12.685-15.729 13.193-4.567.507-9.134.507-13.7.507s-9.134 0-13.7-.507-8.119-2.537-11.163-5.582c-3.045 3.045-6.597 5.074-11.163 5.582-4.06.507-9.134.507-13.7.507-5.074 0-9.641 0-13.7-.507-2.537-.508-4.567-1.015-6.597-2.03-5.581 1.522-11.67 2.03-17.759 2.03-13.192 0-22.326-3.552-29.43-8.119-6.088 5.074-13.7 8.119-22.325 8.119-10.656 0-17.252-4.567-21.312-8.119-9.133 5.074-20.296 8.119-31.459 8.119s-21.311-3.045-28.922-8.119c-1.522 1.015-3.045 2.03-4.567 2.537-7.611 3.552-17.759 5.582-27.4 5.582-15.729 0-25.878-5.074-32.474-10.656-1.015 1.015-2.537 2.03-4.059 3.044-13.7 7.104-28.415 7.612-34.504 7.612-22.326 0-33.489-9.641-39.578-17.76-.507-.507-1.015-1.014-1.015-2.029-10.148 12.177-23.341 19.789-42.622 19.789-17.252 0-30.952-6.597-39.07-17.76-8.626-12.685-9.641-29.937-3.044-48.203 9.133-23.848 30.952-39.07 57.337-39.07h1.015v-2.03c-.508-8.119 5.074-15.73 13.192-18.774L99.68 1.522C102.217.507 104.754 0 107.291 0c7.611 0 14.715 4.059 18.267 11.163l10.148 20.804c3.045-.507 6.089-.507 9.133-.507 14.208 0 26.386 5.074 33.997 14.207 11.67-9.133 26.385-14.207 42.622-14.207 8.626 0 16.237 1.522 22.833 4.567 1.015.507 2.537 1.522 3.552 2.537 9.133-4.567 19.282-7.104 29.937-7.104 16.745 0 30.952 6.596 39.071 18.267 4.059 6.089 6.596 12.685 7.611 20.296 10.148-23.341 33.996-38.563 61.396-38.563 6.089 0 12.685 1.015 17.759 2.537 1.015-.507 2.03-.507 3.552-.507 4.059-1.015 8.119-1.015 12.178-1.015s8.626 0 12.685.507c3.552.507 6.596 1.522 9.133 3.552 2.537-2.03 5.582-3.552 9.134-3.552 4.059-.507 8.626-.507 13.192-.507s8.626 0 12.685 1.015c6.597 1.015 11.671 5.074 14.208 11.163 2.537 5.581 1.522 12.178-2.537 17.252z" fill="#113032"/><path d="M446.234 84.231c6.089 12.685 13.193 23.848 19.789 33.489v.507c-8.118.507-16.237.507-23.848 0-3.552-5.074-7.104-12.685-10.148-20.296l-15.73 20.296c-7.611.507-16.744.507-23.848 0l29.43-35.518c-5.074-9.133-10.148-18.774-13.193-32.474a149.37 149.37 0 0 1 21.311 0c2.03 6.596 4.059 13.7 6.596 20.296l15.73-20.296c7.104-1.015 15.222-1.015 21.819 0l-27.908 33.996zM116.419 41.609c2.03.507 3.552-.507 2.537-2.537l-9.64-19.789c-.508-1.522-2.537-1.522-3.552-1.015l-24.356 9.133c-2.03.507-2.03 2.537 0 3.044l7.611 2.03c-6.089 13.193-13.193 33.489-19.282 46.174-6.596 14.207-10.148 23.848-21.311 23.848s-13.193-8.626-8.118-21.311c5.581-14.715 14.715-18.774 25.37-15.73 3.044-4.059 5.074-10.148 6.089-15.73-3.044-1.015-6.596-1.015-9.641-1.015-17.252 0-33.996 8.626-40.593 27.4-9.641 23.848-1.522 42.622 24.863 42.622 19.282 0 29.937-8.625 42.622-35.518 7.104-14.715 12.686-29.43 19.789-43.637l7.611 2.03zM167.16 74.59c-4.567 12.178-19.281 17.252-47.189 16.745 0 8.118 5.582 11.67 15.73 11.67 7.104 0 14.715-1.522 19.789-4.567 1.522 5.074 1.522 9.641.507 14.208-8.626 4.566-18.774 5.581-26.385 5.581-28.922 0-32.981-21.818-26.893-38.563 5.582-16.237 20.804-30.952 41.608-30.952 19.789.507 27.907 13.193 22.833 25.878zm-25.878-11.163c-8.118 0-14.207 5.074-17.759 13.7 17.252 0 23.341-2.537 24.863-6.596 1.015-3.044 0-7.104-7.104-7.104zm79.156 2.03c3.552 0 7.104.507 9.133 2.03 3.552-5.074 6.089-10.148 6.089-15.222-3.044-1.522-8.626-2.537-15.222-2.537-22.326 0-40.085 13.193-46.682 31.459-6.088 17.252-1.522 38.563 26.893 38.563 7.611 0 15.222-1.522 20.296-4.059 1.523-5.074 2.03-10.148.508-15.222-3.552 1.522-8.626 3.044-14.208 3.044-14.207 0-15.729-10.655-12.685-19.789 3.552-10.656 12.178-18.267 25.878-18.267zm98.944 29.937c-8.626 0-13.192 5.581-15.222 10.655-2.029 6.089.508 13.193 10.148 13.193 8.119 0 13.193-5.074 15.223-10.148 2.029-6.597 0-13.7-10.149-13.7zm-14.714-6.089c-7.104 18.774-23.849 29.429-43.13 29.429-25.878 0-33.489-20.296-26.893-39.577 6.089-17.252 21.819-29.937 42.623-29.937 26.385 0 34.503 19.789 27.4 40.085zm-29.937-24.356c-9.641 0-16.238 8.626-18.775 17.252-3.551 10.656-1.522 21.311 9.134 21.311 9.133 0 15.729-8.118 18.774-16.744 3.044-10.655 2.029-21.818-9.133-21.818zm97.929 37.548c-14.207 0-15.729-10.655-12.685-19.788 3.552-9.641 12.178-17.252 25.878-17.252 3.552 0 7.103.507 9.133 2.03 3.552-5.074 6.089-10.148 6.089-15.222-3.044-1.522-8.626-2.537-15.222-2.537-22.326 0-40.085 13.193-46.682 31.459-6.089 17.252-1.522 38.563 26.893 38.563 7.611 0 15.222-1.522 20.296-4.059 1.522-5.074 2.03-10.148.508-15.222-3.552.507-8.626 2.029-14.208 2.029z" fill="#02f67c"/></svg>