<svg xmlns="http://www.w3.org/2000/svg" viewBox="0 0 128 128" xmlns:v="https://vecta.io/nano"><path fill="#0868ac" d="M47.961 79.02l.193.094.344.166 1.329.615.281.125 1.551.645.378.148 1.463.543.184.063 1.632.534.395.117 1.685.477c36.554 6.665 47.171-21.967 47.171-21.967-8.918 11.618-24.747 14.683-39.745 11.271-.568-.128-1.12-.306-1.674-.47l-.417-.126a51.381 51.381 0 0 1-1.612-.524l-.221-.08a51.147 51.147 0 0 1-1.421-.527l-.398-.156a43.031 43.031 0 0 1-1.534-.638l-.307-.136a61.098 61.098 0 0 1-1.294-.602l-.375-.18c-.336-.164-.669-.339-1.001-.51l-.668-.35a37.935 37.935 0 0 1-1.199-.673l-.405-.226a58.779 58.779 0 0 1-1.563-.958l-.421-.28a41.205 41.205 0 0 1-1.112-.739l-.358-.252-1.051-.76-.466-.353a47.401 47.401 0 0 1-.948-.74l-.423-.34a62.157 62.157 0 0 1-1.182-.995l-.129-.109A49.53 49.53 0 0 1 43.399 60l-.35-.337c-.303-.287-.6-.577-.893-.874l-.35-.35a49.681 49.681 0 0 1-1.095-1.158l-.054-.058a44.217 44.217 0 0 1-1.111-1.264l-.291-.346-.799-.988-.293-.364a53.218 53.218 0 0 1-.923-1.229c-8.326-11.358-11.318-27.023-4.663-39.888l-5.899 7.482c-7.559 10.863-6.617 24.997-.844 36.541l.423.821.271.52.168.299.301.539.55.944.315.519a41.14 41.14 0 0 0 .64 1l.272.422.926 1.336.027.035.156.211c.275.379.558.753.844 1.123l.318.404.78.959.298.355a47.32 47.32 0 0 0 1.087 1.242l.022.023.042.046c.36.394.73.778 1.104 1.164l.354.357.882.865.361.343c.397.374.798.741 1.208 1.101l.02.015.21.18 1.099.928.455.362.916.716.489.372 1.027.737.375.266.103.073c.328.226.663.442.998.659l.432.288c.513.325 1.035.646 1.562.956l.432.244 1.172.656.648.336.84.437zm3.693-36.795c.819 1.174 1.726 2.57 2.813 3.514a34.12 34.12 0 0 0 1.226 1.273l.324.318c.409.396.824.785 1.252 1.164l.052.044.012.013c.475.416.965.816 1.463 1.21l.333.26a37.03 37.03 0 0 0 1.531 1.118l.045.033.698.46.332.22c.373.238.75.472 1.135.694l.16.093 1.003.561.356.187.702.363.106.048a36.17 36.17 0 0 0 1.464.682l.323.133a36.66 36.66 0 0 0 1.199.487l.514.188a33.38 33.38 0 0 0 1.102.383l.499.16c.526.163 1.045.369 1.593.46 28.222 4.677 34.738-17.054 34.738-17.054-5.874 8.459-17.248 12.494-29.386 9.344a33.73 33.73 0 0 1-1.598-.462l-.481-.155c-.375-.121-.748-.25-1.118-.385l-.504-.188a39.777 39.777 0 0 1-1.204-.485l-.324-.138a32.331 32.331 0 0 1-1.472-.685l-.739-.376-.426-.219a35.54 35.54 0 0 1-.934-.527l-.223-.127a35.907 35.907 0 0 1-1.132-.689l-.341-.229-.732-.484a37.97 37.97 0 0 1-1.525-1.115l-.343-.271c-5.313-4.193-9.524-9.927-11.527-16.428-2.098-6.74-1.646-14.308 1.989-20.449l-4.466 6.306c-5.466 7.865-5.169 18.396-.905 26.715a34.709 34.709 0 0 0 2.416 4.035zm29.747-9.731l.701.243.309.098c.333.104.662.226 1.005.29 15.583 3.011 19.811-7.997 20.936-9.617-3.703 5.331-9.925 6.61-17.56 4.757a19.346 19.346 0 0 1-1.848-.57 22.91 22.91 0 0 1-2.193-.91 22.678 22.678 0 0 1-3.846-2.347c-6.832-5.185-11.076-15.072-6.618-23.126l-2.412 3.324c-3.222 4.743-3.539 10.633-1.303 15.869 2.358 5.56 7.19 9.92 12.829 11.989zM66.359 96.295h-4.226a.556.556 0 0 0-.517.417l-1.5 6.94-1.5 6.94a.554.554 0 0 1-.516.417h-2.991c-2.959 0-2.617-2.047-2.011-4.851l.018-.085.066-.354.012-.066.135-.72.145-.771.154-.785.682-3.332.683-3.332a.336.336 0 0 0-.341-.419h-4.337a.55.55 0 0 0-.514.418l-.933 4.424-.932 4.425-.002.006-.086.412c-1.074 4.903-.79 9.58 5.048 9.727l.17.003h9.163a.554.554 0 0 0 .516-.417l1.976-9.289 1.976-9.29a.33.33 0 0 0-.338-.418zm-45.256-.049h-4.64a.562.562 0 0 0-.521.416l-.44 1.942-.44 1.942c-.051.229.098.416.333.416h4.676a.556.556 0 0 0 .518-.417l.425-1.941.425-1.941a.33.33 0 0 0-.336-.417zm-1.346 6.044H15.08a.563.563 0 0 0-.521.416l-.657 2.91-.656 2.909-.183.834-.631 2.97-.63 2.971c-.049.229-.15.599-.225.821 0 0-.874 2.6-2.343 2.57l-.184-.004-1.271-.023h-.001a.558.558 0 0 0-.524.407l-.485 2.039-.484 2.038c-.055.228.093.416.326.42l3.828.031c3.669 0 5.604-2.033 6.843-7.883l1.451-6.714 1.361-6.297a.33.33 0 0 0-.337-.415zm86.117-1.574l-.194-.801-.191-.82-.097-.414c-.38-1.477-1.495-2.328-3.917-2.328l-3.77-.004-3.472-.005h-3.907a.552.552 0 0 0-.515.417l-.173.816-.204.964-.057.271-1.759 8.24-1.67 7.822c-.05.23-.066.512-.038.626s.479.209.713.209h3.524c.235 0 .532-.042.66-.094s.317-.513.364-.742l.626-3.099.627-3.1.001-.005.084-.413.76-3.56.671-3.144a.555.555 0 0 1 .515-.417l11.089-.005a.32.32 0 0 0 .33-.414zm14.275-7.24l-.854.003h-3.549a.904.904 0 0 0-.667.353l-7.849 11.498c-.132.194-.283.166-.335-.062l-.578-2.533a.562.562 0 0 0-.522-.416h-5.045c-.235 0-.374.184-.31.409l2.261 7.921a1.88 1.88 0 0 1 .011.824l-.985 3.833c-.059.228.085.413.32.413h4.987a.58.58 0 0 0 .532-.413l.986-3.833a2.52 2.52 0 0 1 .363-.755l12.742-16.911c.142-.188.065-.341-.169-.339l-1.339.008zm-40.086 9.919v-.004a.514.514 0 0 1-.499.441h-6.397c-.222 0-.334-.15-.301-.336l.006-.015-.004.002.003-.021.029-.109c.611-1.624 1.855-2.69 4.194-2.69 2.634-.001 3.148 1.285 2.969 2.732zm-1.877-7.384c-8.211 0-10.157 4.984-11.249 10.015-1.091 5.128-.998 9.921 7.5 9.921h1.03l.256-.001h.06l1.02-.003h.018l5.406-.033a.553.553 0 0 0 .509-.42l.344-1.681.067-.327.41-2.006a.335.335 0 0 0-.341-.418h-7.639c-3.039 0-3.941-.807-3.608-3.181H84.18l-.001.001.008-.001a.503.503 0 0 0 .445-.315l.029-.106-.001.001c1.813-6.839 1.293-11.445-6.474-11.446zm-38.81 7.358l-.116.409v.001l-.922 3.268-.922 3.267a.596.596 0 0 1-.543.411h-4.88c-3.702 0-4.604-2.896-3.702-7.166.901-4.368 2.668-7.083 6.312-7.358 4.98-.376 5.976 3.126 4.773 7.168zm3.348 7.105s2.301-5.588 2.823-8.814c.713-4.319-1.45-10.585-9.804-10.585-8.306 0-11.914 5.981-13.29 12.484-1.376 6.55.427 12.293 8.686 12.246l6.516-.024 6.089-.022a.59.59 0 0 0 .534-.414l1.061-4.046c.059-.228-.084-.414-.319-.416l-1.017-.006-1.017-.006c-.199-.001-.313-.131-.289-.302l.027-.095zm41.12-3.741a.28.28 0 1 1-.56.001.28.28 0 0 1 .56-.001z"/></svg>