<svg xmlns="http://www.w3.org/2000/svg" width="397.5" height="191.25" xmlns:v="https://vecta.io/nano"><defs><linearGradient id="A" x1="162.674" x2="162.674" y1="14.453" y2="175.035" gradientUnits="userSpaceOnUse"><stop offset="0" stop-color="#70b0df"/><stop offset=".5" stop-color="#1b81c5"/><stop offset="1" stop-color="#4a98ce"/></linearGradient></defs><g fill="#8c96a1"><path fill-rule="evenodd" d="M48.822 92.924l-36.617 82.018h23.949l7.119-17.383h36.803l7.119 17.383h23.949L74.436 92.924H48.822zm13.006 19.338l6.213 15.596 6.213 15.598-12.389.029-12.389.031 6.176-15.627 6.176-15.627zm164.597-19.338l-36.617 82.018h23.949l7.119-17.383h36.803l7.119 17.383h23.949l-36.709-82.018h-25.613zm13.006 19.338l6.213 15.596 6.213 15.598-12.389.029-12.389.031 6.176-15.627 6.176-15.627zm55.58-19.621h27.2l17.392 26.153 18.438-26.153h26.807l-32.3 39.753 34.392 42.83h-27.2l-19.746-27.923-19.354 27.923h-29.03l35.046-42.438z"/><path d="M179.941 57.93L147.38 89.955l11.209 10.143 10.604-10.66 1.184.002v61.154c0 7.763-6.25 14.014-14.014 14.014h-11.135c-7.763 0-14.014-6.25-14.014-14.014v-6.527h-21.65v8.129c0 14.036 11.3 25.336 25.336 25.336h28.766c14.036 0 25.336-11.3 25.336-25.336V89.482l.838.002 12.387 10.613 9.74-10.143-32.025-32.025zm-59.712 79.403l32.561-32.025-11.209-10.143-10.604 10.66-1.184-.002V44.668c0-7.763 6.25-14.014 14.014-14.014h11.135c7.763 0 14.014 6.25 14.014 14.014v6.527h21.65v-8.129c0-14.036-11.3-25.336-25.336-25.336h-28.766c-14.036 0-25.336 11.3-25.336 25.336v62.713l-.838-.002-12.387-10.613-9.74 10.143 32.025 32.025z"/></g><path fill="url(#A)" fill-rule="evenodd" stroke="#0c4c75" stroke-width=".5" d="M136.504 15.73c-14.036 0-25.336 11.3-25.336 25.336v62.713l-.838-.002-12.387-10.613-9.74 10.143 32.025 32.025 32.561-32.025-11.209-10.143-10.604 10.66-1.184-.002V42.668c0-7.763 6.25-14.014 14.014-14.014h11.135c7.763 0 14.014 6.25 14.014 14.014v6.527h21.65v-8.129c0-14.036-11.3-25.336-25.336-25.336h-28.766zm43.438 40.199l-32.561 32.025 11.209 10.143 10.604-10.66 1.184.002v61.154c0 7.763-6.25 14.014-14.014 14.014h-11.135c-7.763 0-14.014-6.25-14.014-14.014v-6.527h-21.65v8.129c0 14.036 11.3 25.336 25.336 25.336h28.766c14.036 0 25.336-11.3 25.336-25.336V87.482l.838.002 12.387 10.613 9.74-10.143-32.025-32.025zm115.07 34.711l31.645 40.146-35.045 42.438h29.029l19.354-27.924 19.746 27.924h27.201l-34.393-42.83 32.299-39.754h-26.807l-18.437 26.154-17.393-26.154h-27.199zm-246.189.283l-36.617 82.018h23.949l7.119-17.383h36.803l7.119 17.383h23.949L74.436 90.924H48.822zm177.604 0l-36.617 82.018h23.949l7.119-17.383h36.803l7.119 17.383h23.949l-36.709-82.018h-25.613zM61.828 110.262l6.213 15.596 6.213 15.598-12.389.029-12.389.031 6.176-15.627 6.176-15.627zm177.604 0l6.213 15.596 6.213 15.598-12.389.029-12.389.031 6.176-15.627 6.176-15.627z"/></svg>