<svg xmlns="http://www.w3.org/2000/svg" width="79.644" height="79.644" xmlns:v="https://vecta.io/nano"><path d="M72.44 0H7.2A7.2 7.2 0 0 0 0 7.2v65.24a7.2 7.2 0 0 0 7.2 7.2h65.24a7.2 7.2 0 0 0 7.2-7.2V7.2a7.2 7.2 0 0 0-7.2-7.2zM24.645 68.77a2.1 2.1 0 0 1-2.1 2.1h-8.921a2.1 2.1 0 0 1-2.1-2.1V31.358a2.1 2.1 0 0 1 2.1-2.1h8.925a2.1 2.1 0 0 1 2.1 2.1zm-6.559-43.035a8.479 8.479 0 1 1 8.479-8.479 8.479 8.479 0 0 1-8.479 8.479zm53.2 43.2a1.928 1.928 0 0 1-1.928 1.928h-9.577a1.928 1.928 0 0 1-1.928-1.928V51.391c0-2.618.768-11.471-6.841-11.471-5.9 0-7.1 6.06-7.34 8.78v20.24a1.928 1.928 0 0 1-1.928 1.928h-9.262a1.928 1.928 0 0 1-1.928-1.928V31.189a1.928 1.928 0 0 1 1.928-1.928h9.263a1.928 1.928 0 0 1 1.928 1.928v3.264c2.189-3.284 5.441-5.819 12.366-5.819 15.335 0 15.247 14.327 15.247 22.2v18.105z" fill="#fff"/></svg>