<svg xmlns="http://www.w3.org/2000/svg" width="530.667" height="530.667" viewBox="0 0 398 398" preserveAspectRatio="xMidYMid meet" xmlns:v="https://vecta.io/nano"><path d="M180.5 3.1c-72.9 7.5-135 52.4-162.7 117.7-31.6 74.5-16.2 160.1 38.9 215.9 60.6 61.2 151.6 77.3 227.8 40.3 34.2-16.6 64.7-44.8 84.2-77.8 33.8-57.2 36.1-128.5 6.2-188.5C338.9 38.8 259.7-5 180.5 3.1zm38.3 9c83 9.1 151.2 73.5 165.7 156.4.9 4.9 1.9 15.5 2.2 23.5 2.6 64.9-29.8 128.1-84.2 164.5-63 42.2-145.4 41.6-209.7-1.4C26.4 310.7-4 228.2 17 149.5 30.8 97.6 67.2 54.1 117 30.1c32-15.4 67.8-21.8 101.8-18zm-143.6 49c-5.5 5.8-7.5 20.1-7.6 53.9-.1 27.1.5 31.7 3.8 30.4 1.9-.7 6.1-10.4 8.4-19.7 1.9-7.5 3.2-10.6 3.2-7.7 0 .7 2.7 6.9 6 13.9 9.2 19.4 9.5 21.4 9.2 49-.2 18.2.1 24.9 1.3 29.5.8 3.4 5.7 14.6 10.9 25.1 11.2 22.4 13 29 13 46.5-.1 15.1-2.7 25.6-10.4 41.9-3.2 6.9-6 13.3-6.1 14.1-.4 4-.3 4 14.6 4 19.1 0 23.2-1.6 28.9-11.5 9.4-15.9 9-34.4-1-48.2-5.6-7.8-9.2-15.5-10.4-22.4-3.9-21.2-4.8-23.5-13.4-37.4-4.8-7.8-6.6-14-7.3-24.5-.5-8.5 1-22.7 2.7-24.4.5-.5 2.3 2.1 4.3 6.1 2 3.8 4.1 7.4 4.9 7.9.8.7 5.5.9 11.9.6l10.6-.4 3.7-7.5c2.1-4.3 4.1-7.2 4.6-6.7 1.8 1.8 4 16.7 4 26.6 0 7.1-.7 12.9-2.2 19-2.1 8.8-2.1 8.9-.2 11.4 1.1 1.6 5.1 3.9 9.9 5.8 28.3 11.5 44.1 24.6 54.2 45.1 5.3 10.6 8.7 23.4 10.9 41.5.8 6.9 2.9 10.5 7.2 12.6 6.6 3.1 14.4 0 16.1-6.3 1.8-6.4-.3-12.8-8.5-26.3-8.5-14-9.7-16.9-10.2-24.6-.7-11.7 3.9-17.8 13.4-17.6 4.4.1 18.3 5.7 17.1 6.9-.4.3-3.4.5-6.7.4-5.2-.2-6.3.1-8.5 2.3-4.6 4.6-2.3 16.1 5.5 28.1 6.1 9.3 7.4 13.1 7.4 21.5.1 12.4-4.9 18.8-15.9 20.6-8.2 1.3.5 2.7 20.1 3.2 17 .4 20 .2 27.5-1.7 18.4-4.6 33.2-14.9 39.3-27.2 3-6.2 6.6-21.9 6.6-28.9 0-24.7-20.3-45.9-44.2-46.3-12.4-.2-22.8 7.6-26.4 20l-1.6 5.6-5.9-12.3c-13.7-28.6-30-47-57.4-65.2-8.8-5.8-21.4-13.7-28-17.4-17.4-9.8-19.3-11.1-21.1-14.5-2.3-4.6-2-21.1.5-30.8 2.5-9.5 3.6-10.6 5.1-5 4.2 16.3 8.5 26.9 10.9 26.9 4.1 0 4.7-27.5 1.2-51-2.6-17.3-4.4-25-7.4-31-2.1-4.4-2.3-4.5-6.7-4.5-2.9.1-7 1.2-11.4 3.3l-6.9 3.3-6.6-2.3c-9.7-3.4-26.8-3.3-36.3.1l-6.7 2.4-7.6-3.7c-10.2-5-13.6-5.5-16.3-2.5zm59.2 58.5c.9.8 1.6 2.2 1.6 2.9 0 2-4.8 7.3-8.1 9.1-2.7 1.3-3.1 1.3-6.7-1.1-3.5-2.3-6.2-6-6.2-8.5 0-2.7 3.4-4 10.5-4 5.4 0 7.8.4 8.9 1.6zm168 138.6c5.3 1.6 11.5 7.8 15.2 15.4 2.5 5.2 2.9 7 2.9 14.9s-.4 9.7-2.9 15c-3.8 7.7-15.8 19.7-24.7 24.6-8 4.4-21.9 10.2-22.6 9.5-.3-.2.9-2.2 2.6-4.3 10.2-12.8 12.4-33.3 6-56.3-1.1-4-1.7-8-1.4-9 .7-2.1 7.5-7.6 11.8-9.5 4-1.8 7.8-1.8 13.1-.3zm-162.2-46c.2 1.8 1 2.3 3.3 2.3s3.1-.5 3.3-2.3c.3-1.9-.1-2.2-3.3-2.2s-3.6.3-3.3 2.2z"/></svg>