<svg xmlns="http://www.w3.org/2000/svg" width="181.735" height="104.662" viewBox="0 0 181.735 104.662"><defs><style>.a{fill:#f8f8f8;}</style></defs><g transform="translate(-48 -168)"><path class="a" d="M219.444,168h-63.06a10.3,10.3,0,0,0-10.291,10.291v.219h-3.722A10.3,10.3,0,0,0,132.08,188.8v28.246h-7.445V206.318a10.3,10.3,0,0,0-10.291-10.291H58.291A10.3,10.3,0,0,0,48,206.318v28.027a10.3,10.3,0,0,0,10.291,10.291h56.053a10.3,10.3,0,0,0,10.291-10.291V223.615h7.445v28.246a10.3,10.3,0,0,0,10.291,10.291h3.722v.219a10.3,10.3,0,0,0,10.291,10.291h63.06a10.3,10.3,0,0,0,10.291-10.291v-7.007a10.3,10.3,0,0,0-10.291-10.291h-63.06a10.3,10.3,0,0,0-10.291,10.291v.219h-3.722a3.726,3.726,0,0,1-3.722-3.722V223.615h7.445v.219a10.3,10.3,0,0,0,10.291,10.291h63.06a10.3,10.3,0,0,0,10.291-10.291v-7.007a10.3,10.3,0,0,0-10.291-10.291h-63.06a10.3,10.3,0,0,0-10.291,10.291v.219h-7.445V188.8a3.726,3.726,0,0,1,3.722-3.722h3.722v.219a10.3,10.3,0,0,0,10.291,10.291h63.06A10.3,10.3,0,0,0,229.735,185.3v-7.007A10.3,10.3,0,0,0,219.444,168ZM118.067,234.344a3.726,3.726,0,0,1-3.722,3.722H58.291a3.726,3.726,0,0,1-3.722-3.722V206.318a3.726,3.726,0,0,1,3.722-3.722h56.053a3.726,3.726,0,0,1,3.722,3.722Zm34.6,21.02a3.726,3.726,0,0,1,3.722-3.722h63.06a3.726,3.726,0,0,1,3.722,3.722v7.007a3.726,3.726,0,0,1-3.722,3.722h-63.06a3.726,3.726,0,0,1-3.722-3.722Zm0-38.537a3.726,3.726,0,0,1,3.722-3.722h63.06a3.726,3.726,0,0,1,3.722,3.722v7.007a3.726,3.726,0,0,1-3.722,3.722h-63.06a3.726,3.726,0,0,1-3.722-3.722Zm70.5-31.53a3.726,3.726,0,0,1-3.722,3.722h-63.06a3.726,3.726,0,0,1-3.722-3.722v-7.007a3.726,3.726,0,0,1,3.722-3.722h63.06a3.726,3.726,0,0,1,3.722,3.722Z"/></g></svg>