<svg xmlns="http://www.w3.org/2000/svg" width="145" height="66.199" viewBox="0 0 145 66.199"><defs><style>.a{fill:#F8F8F8;}</style></defs><g transform="translate(-511.997 -3066.774)"><g transform="translate(562.175 3066.774)"><path class="a" d="M383.9,235.332,356.7,209.569a8.051,8.051,0,1,0-11.074,11.689l20.847,19.749-20.678,18.5a8.051,8.051,0,0,0,5.37,14.051h0a8.04,8.04,0,0,0,5.366-2.051l27.195-24.332a8.052,8.052,0,0,0,.168-11.845Z" transform="translate(-291.59 -207.362)"/><path class="a" d="M228.46,216.992a8.061,8.061,0,0,0-10.994,2.96l-27.195,47.233a8.051,8.051,0,1,0,13.954,8.034l27.195-47.233a8.051,8.051,0,0,0-2.96-10.995Z" transform="translate(-189.199 -213.055)"/></g><g transform="translate(511.997 3066.774)"><path class="a" d="M190.271,295.576a8.051,8.051,0,1,0,13.954,8.034l7.336-12.741V258.6Z" transform="translate(-139.101 -241.446)"/><path class="a" d="M82.843,215.631a8.051,8.051,0,0,0-13.586-6.063L42.062,235.332a8.051,8.051,0,0,0,.169,11.845l27.2,24.333a8.038,8.038,0,0,0,5.366,2.051h0a8.051,8.051,0,0,0,5.37-14.051l-20.678-18.5,20.847-19.749A8,8,0,0,0,82.843,215.631Z" transform="translate(-39.549 -207.362)"/></g></g></svg>