<svg xmlns="http://www.w3.org/2000/svg" width="79.644" height="79.644" viewBox="0 0 79.644 79.644"><defs><style>.a{fill:#fff;}</style></defs><path class="a" d="M72.44,0H7.2A7.2,7.2,0,0,0,0,7.2V72.44a7.2,7.2,0,0,0,7.2,7.2H72.44a7.2,7.2,0,0,0,7.2-7.2V7.2A7.2,7.2,0,0,0,72.44,0ZM24.645,68.77a2.1,2.1,0,0,1-2.1,2.1H13.624a2.1,2.1,0,0,1-2.1-2.1V31.358a2.1,2.1,0,0,1,2.1-2.1h8.925a2.1,2.1,0,0,1,2.1,2.1ZM18.086,25.735a8.479,8.479,0,1,1,8.479-8.479A8.479,8.479,0,0,1,18.086,25.735Zm53.2,43.2a1.928,1.928,0,0,1-1.928,1.928H59.781a1.928,1.928,0,0,1-1.928-1.928V51.391c0-2.618.768-11.471-6.841-11.471-5.9,0-7.1,6.06-7.34,8.78v20.24a1.928,1.928,0,0,1-1.928,1.928H32.482a1.928,1.928,0,0,1-1.928-1.928V31.189a1.928,1.928,0,0,1,1.928-1.928h9.263a1.928,1.928,0,0,1,1.928,1.928v3.264c2.189-3.284,5.441-5.819,12.366-5.819,15.335,0,15.247,14.327,15.247,22.2V68.939Z"/></svg>