<?xml version="1.0" standalone="no"?>
<!DOCTYPE svg PUBLIC "-//W3C//DTD SVG 20010904//EN"
 "http://www.w3.org/TR/2001/REC-SVG-20010904/DTD/svg10.dtd">
<svg version="1.0" xmlns="http://www.w3.org/2000/svg"
 width="398.000000pt" height="398.000000pt" viewBox="0 0 398.000000 398.000000"
 preserveAspectRatio="xMidYMid meet">

<g transform="translate(0.000000,398.000000) scale(0.100000,-0.100000)"
fill="#000000" stroke="none">
<path d="M1805 3949 c-729 -75 -1350 -524 -1627 -1177 -316 -745 -162 -1601
389 -2159 606 -612 1516 -773 2278 -403 342 166 647 448 842 778 338 572 361
1285 62 1885 -360 719 -1152 1157 -1944 1076z m383 -90 c830 -91 1512 -735
1657 -1564 9 -49 19 -155 22 -235 26 -649 -298 -1281 -842 -1645 -630 -422
-1454 -416 -2097 14 -664 444 -968 1269 -758 2056 138 519 502 954 1000 1194
320 154 678 218 1018 180z"/>
<path d="M752 3369 c-55 -58 -75 -201 -76 -539 -1 -271 5 -317 38 -304 19 7
61 104 84 197 19 75 32 106 32 77 0 -7 27 -69 60 -139 92 -194 95 -214 92
-490 -2 -182 1 -249 13 -295 8 -34 57 -146 109 -251 112 -224 130 -290 130
-465 -1 -151 -27 -256 -104 -419 -32 -69 -60 -133 -61 -141 -4 -40 -3 -40 146
-40 191 0 232 16 289 115 94 159 90 344 -10 482 -56 78 -92 155 -104 224 -39
212 -48 235 -134 374 -48 78 -66 140 -73 245 -5 85 10 227 27 244 5 5 23 -21
43 -61 20 -38 41 -74 49 -79 8 -7 55 -9 119 -6 l106 4 37 75 c21 43 41 72 46
67 18 -18 40 -167 40 -266 0 -71 -7 -129 -22 -190 -21 -88 -21 -89 -2 -114 11
-16 51 -39 99 -58 283 -115 441 -246 542 -451 53 -106 87 -234 109 -415 8 -69
29 -105 72 -126 66 -31 144 0 161 63 18 64 -3 128 -85 263 -85 140 -97 169
-102 246 -7 117 39 178 134 176 44 -1 183 -57 171 -69 -4 -3 -34 -5 -67 -4
-52 2 -63 -1 -85 -23 -46 -46 -23 -161 55 -281 61 -93 74 -131 74 -215 1 -124
-49 -188 -159 -206 -82 -13 5 -27 201 -32 170 -4 200 -2 275 17 184 46 332
149 393 272 30 62 66 219 66 289 0 247 -203 459 -442 463 -124 2 -228 -76
-264 -200 l-16 -56 -59 123 c-137 286 -300 470 -574 652 -88 58 -214 137 -280
174 -174 98 -193 111 -211 145 -23 46 -20 211 5 308 25 95 36 106 51 50 42
-163 85 -269 109 -269 41 0 47 275 12 510 -26 173 -44 250 -74 310 -21 44 -23
45 -67 45 -29 -1 -70 -12 -114 -33 l-69 -33 -66 23 c-97 34 -268 33 -363 -1
l-67 -24 -76 37 c-102 50 -136 55 -163 25z m592 -585 c9 -8 16 -22 16 -29 0
-20 -48 -73 -81 -91 -27 -13 -31 -13 -67 11 -35 23 -62 60 -62 85 0 27 34 40
105 40 54 0 78 -4 89 -16z m1680 -1386 c53 -16 115 -78 152 -154 25 -52 29
-70 29 -149 0 -79 -4 -97 -29 -150 -38 -77 -158 -197 -247 -246 -80 -44 -219
-102 -226 -95 -3 2 9 22 26 43 102 128 124 333 60 563 -11 40 -17 80 -14 90 7
21 75 76 118 95 40 18 78 18 131 3z"/>
<path d="M1402 1858 c2 -18 10 -23 33 -23 23 0 31 5 33 23 3 19 -1 22 -33 22
-32 0 -36 -3 -33 -22z"/>
</g>
</svg>
