<svg xmlns="http://www.w3.org/2000/svg" width="227" height="54.44" viewBox="0 0 227 54.44">
  <defs>
    <style>
      .cls-1, .cls-2 {
        fill: #184d47;
      }

      .cls-1 {
        font-size: 51px;
        font-family: JosefinSans-Regular, Josefin Sans;
        letter-spacing: -0.02em;
      }
    </style>
  </defs>
  <g id="logo" transform="translate(0 -1.61)">
    <g id="Camada_1" data-name="Camada 1" transform="translate(0 1.61)">
      <text id="texto" class="cls-1" transform="translate(42 41.44)"><tspan x="0" y="0">rganic.io</tspan></text>
      <g id="fruta">
        <path id="Caminho_1" data-name="Caminho 1" class="cls-2" d="M15.929,13.494S14.414,2.082,28.139,1.61C28.139,1.61,27.485,14.4,15.929,13.494Z" transform="translate(3.356 -1.61)"/>
        <path id="Caminho_2" data-name="Caminho 2" class="cls-2" d="M17.647,19.026a2.253,2.253,0,0,1-2.193,2.253H15.1a2.253,2.253,0,0,1-2.253-2.253V5.483A2.253,2.253,0,0,1,15.1,3.23h.351a2.253,2.253,0,0,1,2.253,2.253Z" transform="translate(2.716 -1.268)"/>
        <circle id="Elipse_1" data-name="Elipse 1" class="cls-2" cx="19.443" cy="19.443" r="19.443" transform="translate(0 10.394)"/>
      </g>
    </g>
  </g>
</svg>
