<svg xmlns="http://www.w3.org/2000/svg" width="119.911" height="147.629" viewBox="0 0 119.911 147.629"><defs><style>.a{fill:#f8f8f8;}</style></defs><g transform="matrix(0.951, 0.309, -0.309, 0.951, 33.85, -1.828)"><path class="a" d="M56.7,99.512v16.347H10.386V36.818H30.236v-4.2H12.342a6.445,6.445,0,0,0-6.427,6.423v82.278a6.443,6.443,0,0,0,6.427,6.423H54.751a6.444,6.444,0,0,0,6.431-6.423V99.509H56.7ZM24.1,123.1h-5.42a1.808,1.808,0,0,1,0-3.617h5.423a1.808,1.808,0,1,1,0,3.617Zm9.438,1.423a3.214,3.214,0,1,1,3.212-3.212A3.216,3.216,0,0,1,33.539,124.527ZM48.408,123.1H42.985a1.808,1.808,0,0,1,0-3.617h5.423a1.808,1.808,0,1,1,0,3.617ZM84.062,0H41.653a6.44,6.44,0,0,0-6.423,6.423V88.7a6.446,6.446,0,0,0,6.423,6.431H84.062A6.449,6.449,0,0,0,90.489,88.7V6.423A6.453,6.453,0,0,0,84.062,0ZM56.073,4.635H69.638a.777.777,0,0,1,0,1.555H56.073a.777.777,0,1,1,0-1.555Zm6.781,87.279A3.214,3.214,0,1,1,66.069,88.7,3.212,3.212,0,0,1,62.854,91.914Zm23.165-8.675H39.7V10.186H86.015V83.238Z" transform="translate(0)"/></g></svg>